<?xml version="1.0" encoding="utf-8"?>
<svg version="1.1" xmlns:xlink="http://www.w3.org/1999/xlink" width="339px" height="300px" xmlns="http://www.w3.org/2000/svg">
  <g transform="matrix(1 0 0 1 -223 -145 )">
    <path d="M 223 145  L 562 145  L 562 445  L 223 445  L 223 145  " fill-rule="nonzero" fill="#cccccc" stroke="none" />
    <path d="M 244 166  L 541 166  L 541 424  L 244 424  L 244 166  " fill-rule="nonzero" fill="#ffffff" stroke="none" />
    <path d="M 421.78 235  C 409.18 235  399.28 225.1  399.28 212.5  C 399.28 199.9  409.18 190  421.78 190  C 434.38 190  444.28 199.9  444.28 212.5  C 444.28 225.1  434.38 235  421.78 235  " fill-rule="nonzero" fill="#cccccc" stroke="none" />
    <path d="M 252 417  L 252 283.35  L 322.5 222.6  L 421.2 287.973451327434  L 477.6 259.05  L 534 287.973451327434  L 534 417  L 252 417  " fill-rule="nonzero" fill="#169bd5" stroke="none" />
  </g>
</svg>