<?xml version="1.0" encoding="utf-8"?>
<svg version="1.1" xmlns:xlink="http://www.w3.org/1999/xlink" width="300px" height="170px" xmlns="http://www.w3.org/2000/svg">
  <defs>
    <mask fill="white" id="clip19">
      <path d="M 91 272  L 91 107  C 91 104.225  93.225 102  96 102  L 386 102  C 388.775 102  391 104.225  391 107  L 391 272  " fill-rule="evenodd" />
    </mask>
  </defs>
  <g transform="matrix(1 0 0 1 -91 -102 )">
    <path d="M 91 102  L 391 102  L 391 272  L 91 272  L 91 102  " fill-rule="nonzero" fill="#cccccc" stroke="none" mask="url(#clip19)" />
    <path d="M 103 114  L 379 114  L 379 260  L 103 260  L 103 114  " fill-rule="nonzero" fill="#ffffff" stroke="none" mask="url(#clip19)" />
    <path d="M 259.75 153  C 252.61 153  247 147.39  247 140.25  C 247 133.11  252.61 127.5  259.75 127.5  C 266.89 127.5  272.5 133.11  272.5 140.25  C 272.5 147.39  266.89 153  259.75 153  " fill-rule="nonzero" fill="#cccccc" stroke="none" mask="url(#clip19)" />
    <path d="M 108 256  L 108 180.65  L 174.75 146.4  L 268.2 209.42  L 321.6 166.95  L 375 209.42  L 375 256  L 108 256  " fill-rule="nonzero" fill="#169bd5" stroke="none" mask="url(#clip19)" />
  </g>
</svg>